<?xml version="1.0" encoding="utf-8"?>
<!-- Generator: Adobe Illustrator 24.1.1, SVG Export Plug-In . SVG Version: 6.00 Build 0)  -->
<svg version="1.1" id="Layer_1" xmlns="http://www.w3.org/2000/svg" xmlns:xlink="http://www.w3.org/1999/xlink" x="0px" y="0px"
	 viewBox="0 0 512 512" style="enable-background:new 0 0 512 512;" xml:space="preserve">
<g>
	<path d="M32.2,479.4c0-8.8,2.9-16.2,8.5-22.3c5.6-6.2,12.6-9.1,20.6-9.1v-0.6l386.8,1.2l2.9-0.6c7.9,0.3,15,3.5,20.6,9.7
		c5.6,6.2,8.5,13.8,8.2,22.6c0,8.8-2.9,16.2-8.5,22.3c-5.6,6.2-12.6,9.1-20.6,9.1v0.3l-383-1.2c-2.9,0.3-5,0.6-6.5,0.6
		c-8.2-0.3-15-3.2-20.6-9.4C34.8,495.8,31.9,488.2,32.2,479.4z M56.3,318.9c-0.3-12.6,1.2-27.3,4.7-44.7c1.8-8.8,5.9-22.3,12.9-40.3
		c0.6-1.5,2.1-4.1,3.8-8.2l1.2,1.5l0.6,0.9c3.2,12.9,7.9,24.7,14.4,35.3c6.2,9.4,14.1,16.5,24.1,20.3c7.6,3.2,18.5,5,32.3,5.3h2.4
		h2.4c-9.7-9.7-17.3-19.7-23.2-29.4c-8.8-15.3-14.4-32.9-16.7-53.2c-1.8-15.9-0.9-35,2.6-57.6c0.6-4.4,3.5-14.4,8.5-29.7
		c4.4-13.8,10.6-26.4,18.8-37.6C154.4,67,168,52.3,185.9,37c10.9-9.1,26.1-19.7,45.8-31.4C233.8,4.4,237,2.4,242,0v1.5v1.2v0.6
		C235,20,230,37,227.6,54.1c-1.8,15.6,0.6,30,7,43.5c5,10.6,14.1,22,27,33.8c2.7,2.7,8.5,8.5,17.6,17c8.8,8.5,15.9,15.3,20.6,20
		l7.3,7.3c7.6-11.2,12-24.4,12.9-39.7c1.2-16.2,0-33.8-4.1-52.9l0.3-3.2c0.6,0.6,3.8,2.9,8.8,7.1c16.5,14.7,28.8,27.9,37.6,39.4
		c14.1,18.2,24.4,35.6,31.2,51.1c5.6,13.5,9.1,27,11.2,41.1c1.8,12.3,2.3,22.6,2.1,30.9c-0.3,22.9-2.9,42-7.3,57.6
		c-2.1,6.2-3.8,11.2-5.6,15.3c7.3-2.1,13.8-4.7,19.1-7.6c7.3-4.7,13.2-10.9,17.6-19.4c4.7-8.5,8.5-18.2,11.2-28.8l0.9-1.5l1.5,2.6
		l1.5,2.9c3.8,9.1,6.5,18.5,7.9,28.5c2.4,11.2,2.9,22,2.4,33.2c-0.6,8.5-2.1,16.5-4.7,23.8c-2.3,7-4.7,12.6-6.5,17
		c-5.6,11.2-11.5,20.9-18.2,28.8l-4.1,4.7H99.5l-2.1-1.8l-2.4-2.1c-7.6-7.3-15.9-18.5-24.1-33.2c-2.4-4.4-5.3-11.2-8.5-20.3
		C58.9,340.4,56.9,330.1,56.3,318.9z"/>
</g>
</svg>
