<?xml version="1.0" encoding="utf-8"?>
<!-- Generator: Adobe Illustrator 27.2.0, SVG Export Plug-In . SVG Version: 6.00 Build 0)  -->
<svg version="1.1" id="Layer_1" xmlns="http://www.w3.org/2000/svg" xmlns:xlink="http://www.w3.org/1999/xlink" x="0px" y="0px"
	 viewBox="0 0 512 512" style="enable-background:new 0 0 512 512;" xml:space="preserve">
<style type="text/css">
	.st0{fill:#212121;}
</style>
<g>
	<path class="st0" d="M185.5,307.27c24.74,0,44.8,20.06,44.8,44.8v89.6c0,24.74-20.06,44.8-44.8,44.8H44.8
		c-24.74,0-44.8-20.06-44.8-44.8v-89.6c0-24.74,20.06-44.8,44.8-44.8H185.5z M467.2,307.27c24.74,0,44.8,20.06,44.8,44.8v89.6
		c0,24.74-20.06,44.8-44.8,44.8H326.5c-24.74,0-44.8-20.06-44.8-44.8v-89.6c0-24.74,20.06-44.8,44.8-44.8H467.2z M467.2,25.53
		c24.74,0,44.8,20.06,44.8,44.8v140.89c0,24.74-20.06,44.8-44.8,44.8H44.8c-24.74,0-44.8-20.06-44.8-44.8V70.33
		c0-23.51,18.1-42.78,41.13-44.65l3.67-0.15H467.2z"/>
</g>
</svg>
