<?xml version="1.0" encoding="utf-8"?>
<!-- Generator: Adobe Illustrator 27.5.0, SVG Export Plug-In . SVG Version: 6.00 Build 0)  -->
<svg version="1.1" id="Layer_1" xmlns="http://www.w3.org/2000/svg" xmlns:xlink="http://www.w3.org/1999/xlink" x="0px" y="0px"
	 viewBox="0 0 512 512" style="enable-background:new 0 0 512 512;" xml:space="preserve">
<g>
	<path d="M243.45,2.6L19.47,98.59c-14,6-21.8,21-18.7,35.8s16.1,25.6,31.3,25.6v8c0,13.3,10.7,24,24,24h399.95c13.3,0,24-10.7,24-24
		v-8c15.2,0,28.3-10.7,31.3-25.6c3-14.9-4.8-29.9-18.7-35.8L268.64,2.6C260.64-0.79,251.44-0.79,243.45,2.6L243.45,2.6z
		 M128.06,223.98H64.07v196.28c-0.6,0.3-1.2,0.7-1.8,1.1l-47.99,32c-11.7,7.8-17,22.4-12.9,35.9s16.6,22.7,30.7,22.7h447.95
		c14.1,0,26.5-9.2,30.6-22.7s-1.1-28.1-12.9-35.9l-47.99-32c-0.6-0.4-1.2-0.7-1.8-1.1V223.98h-63.89v191.98h-40V223.98h-63.99
		v191.98h-47.99V223.98h-63.99v191.98h-40V223.98z M256.04,64c17.67,0,32,14.33,32,32s-14.33,32-32,32s-32-14.33-32-32
		S238.37,64,256.04,64z"/>
</g>
</svg>
